<svg xmlns="http://www.w3.org/2000/svg" xmlns:xlink="http://www.w3.org/1999/xlink" fill="none" version="1.1" width="24" height="24" viewBox="0 0 24 24"><g><g><g><g><path d="M1.25,9C1.25,9.41421,1.585786,9.75,2,9.75C2.4142099999999997,9.75,2.75,9.41421,2.75,9C2.75,9,1.25,9,1.25,9C1.25,9,1.25,9,1.25,9ZM9,2.75C9.41421,2.75,9.75,2.4142099999999997,9.75,2C9.75,1.585786,9.41421,1.25,9,1.25C9,1.25,9,2.75,9,2.75C9,2.75,9,2.75,9,2.75ZM2.75,9C2.75,9,2.75,6.5,2.75,6.5C2.75,6.5,1.25,6.5,1.25,6.5C1.25,6.5,1.25,9,1.25,9C1.25,9,2.75,9,2.75,9C2.75,9,2.75,9,2.75,9ZM2.75,6.5C2.75,4.42421,4.42421,2.75,6.5,2.75C6.5,2.75,6.5,1.25,6.5,1.25C3.59579,1.25,1.25,3.59579,1.25,6.5C1.25,6.5,2.75,6.5,2.75,6.5C2.75,6.5,2.75,6.5,2.75,6.5ZM6.5,2.75C6.5,2.75,9,2.75,9,2.75C9,2.75,9,1.25,9,1.25C9,1.25,6.5,1.25,6.5,1.25C6.5,1.25,6.5,2.75,6.5,2.75C6.5,2.75,6.5,2.75,6.5,2.75Z" fill="#292D32" fill-opacity="1"/></g><g><path d="M15,1.25C14.585786,1.25,14.25,1.585786,14.25,2C14.25,2.4142099999999997,14.585786,2.75,15,2.75C15,2.75,15,1.25,15,1.25C15,1.25,15,1.25,15,1.25ZM21.25,9C21.25,9.41421,21.58579,9.75,22,9.75C22.41421,9.75,22.75,9.41421,22.75,9C22.75,9,21.25,9,21.25,9C21.25,9,21.25,9,21.25,9ZM15,2.75C15,2.75,17.5,2.75,17.5,2.75C17.5,2.75,17.5,1.25,17.5,1.25C17.5,1.25,15,1.25,15,1.25C15,1.25,15,2.75,15,2.75C15,2.75,15,2.75,15,2.75ZM17.5,2.75C19.575789999999998,2.75,21.25,4.42421,21.25,6.5C21.25,6.5,22.75,6.5,22.75,6.5C22.75,3.59579,20.40421,1.25,17.5,1.25C17.5,1.25,17.5,2.75,17.5,2.75C17.5,2.75,17.5,2.75,17.5,2.75ZM21.25,6.5C21.25,6.5,21.25,9,21.25,9C21.25,9,22.75,9,22.75,9C22.75,9,22.75,6.5,22.75,6.5C22.75,6.5,21.25,6.5,21.25,6.5C21.25,6.5,21.25,6.5,21.25,6.5Z" fill="#292D32" fill-opacity="1"/></g><g><path d="M22.75,16C22.75,15.585786,22.41421,15.25,22,15.25C21.58579,15.25,21.25,15.585786,21.25,16C21.25,16,22.75,16,22.75,16C22.75,16,22.75,16,22.75,16ZM16,21.25C15.585786,21.25,15.25,21.58579,15.25,22C15.25,22.41421,15.585786,22.75,16,22.75C16,22.75,16,21.25,16,21.25C16,21.25,16,21.25,16,21.25ZM21.25,16C21.25,16,21.25,17.5,21.25,17.5C21.25,17.5,22.75,17.5,22.75,17.5C22.75,17.5,22.75,16,22.75,16C22.75,16,21.25,16,21.25,16C21.25,16,21.25,16,21.25,16ZM21.25,17.5C21.25,19.575789999999998,19.575789999999998,21.25,17.5,21.25C17.5,21.25,17.5,22.75,17.5,22.75C20.40421,22.75,22.75,20.40421,22.75,17.5C22.75,17.5,21.25,17.5,21.25,17.5C21.25,17.5,21.25,17.5,21.25,17.5ZM17.5,21.25C17.5,21.25,16,21.25,16,21.25C16,21.25,16,22.75,16,22.75C16,22.75,17.5,22.75,17.5,22.75C17.5,22.75,17.5,21.25,17.5,21.25C17.5,21.25,17.5,21.25,17.5,21.25Z" fill="#292D32" fill-opacity="1"/></g><g><path d="M9,22.75C9.41421,22.75,9.75,22.41421,9.75,22C9.75,21.58579,9.41421,21.25,9,21.25C9,21.25,9,22.75,9,22.75C9,22.75,9,22.75,9,22.75ZM2.75,15C2.75,14.585786,2.4142099999999997,14.25,2,14.25C1.585786,14.25,1.25,14.585786,1.25,15C1.25,15,2.75,15,2.75,15C2.75,15,2.75,15,2.75,15ZM9,21.25C9,21.25,6.5,21.25,6.5,21.25C6.5,21.25,6.5,22.75,6.5,22.75C6.5,22.75,9,22.75,9,22.75C9,22.75,9,21.25,9,21.25C9,21.25,9,21.25,9,21.25ZM6.5,21.25C4.42421,21.25,2.75,19.575789999999998,2.75,17.5C2.75,17.5,1.25,17.5,1.25,17.5C1.25,20.40421,3.59579,22.75,6.5,22.75C6.5,22.75,6.5,21.25,6.5,21.25C6.5,21.25,6.5,21.25,6.5,21.25ZM2.75,17.5C2.75,17.5,2.75,15,2.75,15C2.75,15,1.25,15,1.25,15C1.25,15,1.25,17.5,1.25,17.5C1.25,17.5,2.75,17.5,2.75,17.5C2.75,17.5,2.75,17.5,2.75,17.5Z" fill="#292D32" fill-opacity="1"/></g><g style="opacity:0;"></g></g></g></g></svg>